<?xml version="1.0" encoding="utf-8"?>
<!-- Generator: Adobe Illustrator 16.0.0, SVG Export Plug-In . SVG Version: 6.00 Build 0)  -->
<!DOCTYPE svg PUBLIC "-//W3C//DTD SVG 1.1//EN" "http://www.w3.org/Graphics/SVG/1.1/DTD/svg11.dtd">
<svg version="1.1" id="Layer_1" xmlns="http://www.w3.org/2000/svg" xmlns:xlink="http://www.w3.org/1999/xlink" x="0px" y="0px"
	 width="432px" height="309.6px" viewBox="0 0 432 309.6" enable-background="new 0 0 432 309.6" xml:space="preserve">
<path fill="#A1A3A4" d="M426.902,281.377c-0.323,2.289-2.663,4.135-5.266,4.176c-2.491,0.03-4.892-1.372-5.477-3.591
	c-0.312-1.19-0.262-2.684,0.181-3.833c0.728-1.917,3.058-2.643,5.104-1.957C425.541,277.533,427.214,279.138,426.902,281.377"/>
<path fill="#A1A3A4" d="M83.926,292.532c-0.04,2.007-1.835,3.561-4.125,3.54c-2.451-0.01-4.519-1.957-4.448-4.196
	c0.051-1.846,1.624-3.338,3.45-3.277C81.364,288.679,83.956,290.676,83.926,292.532"/>
<path fill="#A1A3A4" d="M368.472,243.411c-1.452,4.942-1.331,4.912-6.495,3.551c-17.4-4.559-35.091-7.545-53.014-8.997
	c-8.362-0.676-16.764-1.342-25.125-1.109c-19.043,0.534-37.764,3.278-55.516,10.682c-1.957,0.816-2.652,0.201-3.399-1.473
	c-2.077-4.609-2.077-4.458,2.562-6.324c16.158-6.485,33.032-9.351,50.32-10.137c3.258-0.151,6.536-0.021,9.813-0.021
	c18.52-0.252,36.816,2.078,54.981,5.487c7.988,1.492,15.906,3.389,23.864,5.063C368.381,240.537,369.098,241.293,368.472,243.411"/>
<path fill="#A1A3A4" d="M411.894,224.116c-5.234-1.2-10.439-2.542-15.644-3.853c-2.593-0.656-5.175-1.372-8.463-2.25
	c1.302-0.585,1.805-0.847,2.34-1.038c6.365-2.381,12.739-4.752,19.114-7.102c4.438-1.644,4.619-0.604,2.663-6.082
	c-0.706-1.997-1.584-2.37-3.511-1.624c-6.425,2.481-12.89,4.822-19.346,7.202c-3.903,1.442-7.816,2.854-12.032,4.397
	c-11.529-46.235-22.978-92.139-34.536-138.485c1.503,0.434,2.381,0.666,3.258,0.938c7.918,2.482,15.836,5.003,23.773,7.444
	c5.013,1.543,4.952,1.473,6.415-3.671c0.475-1.675-0.081-2.25-1.544-2.684c-4.266-1.271-8.502-2.632-12.738-3.963
	c-3.479-1.1-6.949-2.209-11.146-3.541c1.352-0.534,1.926-0.796,2.521-0.978c6.656-2.038,13.324-4.055,19.981-6.103
	c3.853-1.18,3.853-1.189,2.632-5.153c-0.05-0.162-0.131-0.313-0.161-0.485c-0.343-2.168-1.432-2.562-3.52-1.906
	c-9.36,2.955-18.771,5.77-28.161,8.614c-1.251,0.373-2.521,0.656-3.924,1.009c-4.751-18.993-9.421-37.673-14.171-56.666
	c-1.635,0.374-2.976,0.827-4.357,0.979c-2.521,0.262-2.814,1.422-2.22,3.732c4.59,18.044,9.048,36.119,13.536,54.193
	c0.212,0.818,0.293,1.675,0.494,2.885c-6.989-1.674-13.455-3.479-20.021-4.73c-11.024-2.108-22.059-4.297-33.184-5.669
	c-17.137-2.108-34.203-0.403-51.077,2.865c-18.74,3.631-36.927,9.31-54.446,16.874c-20.092,8.665-39.983,17.803-59.984,26.679
	c-9.381,4.165-19.043,7.574-29.21,9.168c-22.472,3.51-44.491,1.059-66.106-5.709c-4.438-1.392-8.865-2.814-14.06-4.468
	c9.995,39.105,30.874,68.375,68.758,84.352c-0.706,0.776-1.261,1.392-1.825,1.997C53.062,211.519,43.5,235.423,43.691,263.19
	c0.021,2.391,0.747,3.5,3.108,3.894c5.617,0.938,11.174,2.33,16.823,3.015c20.405,2.463,40.517,0.586,60.337-4.688
	c18.851-5.014,36.906-12.205,54.829-19.771c15.594-6.596,31.197-13.182,46.7-20.011c18.559-8.18,38.136-10.52,58.066-9.602
	c14.898,0.695,29.766,2.34,44.572,4.135c13.898,1.685,27.707,4.136,41.556,6.233c1.896,0.283,3.036,0.969,3.57,3.137
	c5.567,22.725,11.227,45.43,16.976,68.113c1.18,4.69,0.061,4.609,5.497,3.409c2.31-0.504,2.804-1.372,2.239-3.601
	c-5.225-20.566-10.359-41.152-15.503-61.738c-0.948-3.783-1.836-7.574-2.814-11.649c1.06,0.15,1.715,0.181,2.34,0.343
	c8.554,2.118,17.097,4.236,25.64,6.395c5.941,1.513,4.397,1.312,6.012-3.661C414.203,225.407,413.76,224.55,411.894,224.116
	 M356.903,216.703c-24.137-3.661-48.304-7.161-72.723-8.271c-24.197-1.099-47.265,3.107-69.435,13.415
	c-20.435,9.502-41.334,18.034-62.213,26.518c-15.644,6.344-31.822,11.095-48.586,13.637c-16.844,2.552-33.607,2.067-50.341-0.988
	c-1.957-0.363-2.349-1.332-2.259-3.127c1.301-26.779,12.255-48.959,31.883-67.024c1.533-1.422,3.056-2.864,4.569-4.316
	c0.211-0.212,0.323-0.545,0.616-1.05c-37.34-9.139-59.58-33.93-72.501-68.425c0.151-0.252,0.292-0.505,0.443-0.767
	c0.908,0.242,1.826,0.454,2.724,0.736c21.816,6.688,44.016,9.048,66.65,5.558c11.59-1.785,22.524-5.88,33.185-10.671
	c18.659-8.382,37.208-17.036,56.039-25.004c23.118-9.774,47.033-16.794,72.118-19.548c18.689-2.057,37.178-1.139,55.505,3.006
	c9.885,2.24,19.729,4.69,29.613,6.98c1.826,0.424,2.27,1.695,2.652,3.228c3.965,16.047,7.938,32.084,11.942,48.112
	c6.688,26.769,13.405,53.527,20.103,80.297c0.746,2.995,1.473,6.001,2.369,9.652C364.78,217.943,360.847,217.298,356.903,216.703"/>
</svg>
