<?xml version="1.0" encoding="utf-8"?>
<!-- Generator: Adobe Illustrator 16.0.0, SVG Export Plug-In . SVG Version: 6.00 Build 0)  -->
<!DOCTYPE svg PUBLIC "-//W3C//DTD SVG 1.1//EN" "http://www.w3.org/Graphics/SVG/1.1/DTD/svg11.dtd">
<svg version="1.1" id="Layer_1" xmlns="http://www.w3.org/2000/svg" xmlns:xlink="http://www.w3.org/1999/xlink" x="0px" y="0px"
	 width="604.8px" height="158.4px" viewBox="0 0 604.8 158.4" enable-background="new 0 0 604.8 158.4" xml:space="preserve">
<path fill="#A1A3A4" d="M289.662,38.18l-14.914,55.638l-0.459,1.607l-0.459,1.719c-0.384,1.378-0.728,2.639-1.032,3.786
	c-0.994,3.135-1.99,6.081-2.982,8.834c-2.754,7.493-5.928,13.996-9.523,19.501c-10.323,15.602-24.052,23.402-41.182,23.402
	c-12.465,0-22.14-4.055-29.023-12.16c-6.5-7.57-9.751-17.705-9.751-30.399c0-6.425,0.917-13.079,2.754-19.961l11.47,3.097
	c-1.528,5.583-2.294,11.203-2.294,16.864c0,9.253,2.028,16.557,6.08,21.91c4.588,5.889,11.435,8.833,20.534,8.833
	c12.467,0,22.676-5.62,30.629-16.862c2.907-4.207,5.545-9.217,7.917-15.027c1.606-4.056,3.171-8.759,4.703-14.111
	c-3.441,1.835-7.19,2.754-11.242,2.754c-6.809,0-12.2-2.409-16.176-7.227c-3.671-4.435-5.506-10.134-5.506-17.093
	c0-3.594,0.498-7.151,1.492-10.669l7.341-27.532l11.471,3.097l-7.341,27.532c-0.766,2.908-1.148,5.546-1.148,7.916
	c0,3.442,0.726,6.234,2.18,8.374c1.682,2.524,4.168,3.784,7.457,3.784c5.735,0,10.82-3.822,15.257-11.47
	c1.376-2.447,2.599-5.123,3.67-8.03c0.154-0.459,0.345-0.956,0.575-1.491c0.075-0.382,0.189-0.763,0.344-1.147l0.115-0.459
	l0.113-0.229l0.116-0.344l7.341-27.532L289.662,38.18z"/>
<path fill="#A1A3A4" d="M360.668,53.897c-2.678,7.342-5.468,13.919-8.374,19.731c-8.105,15.984-15.83,23.976-23.172,23.976
	c-3.597,0-6.272-1.911-8.03-5.735c-0.765-1.529-1.34-3.328-1.722-5.393c-0.306-1.682-0.536-3.479-0.688-5.391
	c-6.731,11.012-13.117,16.519-19.159,16.519c-4.284,0-7.302-2.639-9.061-7.917c-0.69-1.91-1.148-4.205-1.378-6.881
	c-0.229-1.99-0.344-4.131-0.344-6.425c0-4.053,0.306-8.449,0.919-13.192l-2.066-0.575l7.342-27.531l11.471,3.097
	c-3.825,14.379-5.736,27.072-5.736,38.086c0,3.672,0.231,6.422,0.69,8.26c3.133-2.983,6.843-8.719,11.127-17.208
	c4.97-10.018,9.021-20.763,12.159-32.235l11.472,3.097c-3.9,14.301-5.851,26.884-5.851,37.742c0,1.835,0.076,3.557,0.229,5.163
	c0.075,1.225,0.229,2.372,0.459,3.441c3.212-2.906,6.92-8.643,11.127-17.208c4.972-9.941,9.023-20.686,12.16-32.235l11.471,3.097
	C364.416,42.923,362.734,48.161,360.668,53.897"/>
<path fill="#7C959D" d="M38.577,93.657c-9.298,0-16.822-2.771-22.573-8.318c-5.751-5.545-8.626-12.762-8.626-21.649v-1.568
	c0-6.199,1.148-11.67,3.445-16.413c2.296-4.741,5.647-8.411,10.054-11.007c4.406-2.594,9.635-3.892,15.684-3.892
	c8.514,0,15.236,2.643,20.165,7.925c4.929,5.284,7.394,12.651,7.394,22.098v7.339H26.591c0.672,3.397,2.146,6.068,4.425,8.009
	c2.277,1.942,5.227,2.913,8.85,2.913c5.975,0,10.643-2.091,14.003-6.274l8.626,10.194c-2.352,3.248-5.685,5.836-9.998,7.758
	C48.183,92.695,43.544,93.657,38.577,93.657 M36.449,45.373c-5.527,0-8.813,3.661-9.858,10.979h19.045v-1.457
	c0.074-3.024-0.692-5.367-2.297-7.029C41.733,46.205,39.436,45.373,36.449,45.373"/>
<polygon fill="#7C959D" points="95.152,70.075 104.73,31.93 124.615,31.93 104.842,92.536 85.573,92.536 65.8,31.93 85.741,31.93 
	"/>
<path fill="#7C959D" d="M159.567,93.657c-9.297,0-16.822-2.771-22.572-8.318c-5.751-5.545-8.626-12.762-8.626-21.649v-1.568
	c0-6.199,1.147-11.67,3.444-16.413c2.296-4.741,5.647-8.411,10.054-11.007c4.407-2.594,9.635-3.892,15.684-3.892
	c8.514,0,15.236,2.643,20.165,7.925c4.93,5.284,7.394,12.651,7.394,22.098v7.339h-37.529c0.672,3.397,2.147,6.068,4.425,8.009
	c2.277,1.942,5.228,2.913,8.851,2.913c5.974,0,10.643-2.091,14.003-6.274l8.626,10.194c-2.352,3.248-5.686,5.836-9.999,7.758
	C169.174,92.695,164.535,93.657,159.567,93.657 M157.439,45.373c-5.527,0-8.812,3.661-9.858,10.979h19.045v-1.457
	c0.074-3.024-0.692-5.367-2.296-7.029C162.723,46.205,160.426,45.373,157.439,45.373"/>
<path fill="#7C959D" d="M229.361,49.013l-6.217-0.448c-5.938,0-9.746,1.868-11.427,5.601v38.37H192.84V31.93h17.7l0.617,7.787
	c3.173-5.939,7.599-8.908,13.275-8.908c2.016,0,3.771,0.225,5.265,0.673L229.361,49.013z"/>
<path fill="#7C959D" d="M389.465,38.428c4.033-5.078,9.187-7.618,15.46-7.618c6.684,0,11.726,1.98,15.124,5.937
	c3.398,3.959,5.134,9.802,5.21,17.534v38.255h-18.933V54.729c0-3.213-0.655-5.575-1.961-7.087c-1.307-1.513-3.528-2.269-6.665-2.269
	c-3.885,0-6.629,1.233-8.235,3.698v43.465h-18.876V6.5h18.876V38.428z"/>
<path fill="#7C959D" d="M465.084,93.657c-9.299,0-16.823-2.771-22.573-8.318c-5.751-5.545-8.626-12.762-8.626-21.649v-1.568
	c0-6.199,1.147-11.67,3.444-16.413c2.296-4.741,5.647-8.411,10.055-11.007c4.406-2.594,9.635-3.892,15.684-3.892
	c8.514,0,15.235,2.643,20.165,7.925c4.929,5.284,7.394,12.651,7.394,22.098v7.339h-37.529c0.672,3.397,2.147,6.068,4.426,8.009
	c2.277,1.942,5.228,2.913,8.851,2.913c5.974,0,10.644-2.091,14.003-6.274l8.626,10.194c-2.353,3.248-5.687,5.836-9.998,7.758
	C474.69,92.695,470.051,93.657,465.084,93.657 M462.956,45.373c-5.527,0-8.813,3.661-9.858,10.979h19.045v-1.457
	c0.074-3.024-0.691-5.367-2.296-7.029C468.24,46.205,465.943,45.373,462.956,45.373"/>
<path fill="#7C959D" d="M534.877,49.013l-6.217-0.448c-5.938,0-9.746,1.868-11.428,5.601v38.37h-18.877V31.93h17.701l0.616,7.787
	c3.174-5.939,7.6-8.908,13.274-8.908c2.017,0,3.771,0.225,5.266,0.673L534.877,49.013z"/>
<path fill="#7C959D" d="M571.007,93.657c-9.299,0-16.823-2.771-22.574-8.318c-5.752-5.545-8.627-12.762-8.627-21.649v-1.568
	c0-6.199,1.149-11.67,3.446-16.413c2.296-4.741,5.647-8.411,10.055-11.007c4.405-2.594,9.634-3.892,15.684-3.892
	c8.514,0,15.235,2.643,20.165,7.925c4.929,5.284,7.394,12.651,7.394,22.098v7.339H559.02c0.671,3.397,2.146,6.068,4.425,8.009
	c2.278,1.942,5.227,2.913,8.85,2.913c5.976,0,10.643-2.091,14.004-6.274l8.626,10.194c-2.353,3.248-5.686,5.836-9.997,7.758
	C580.613,92.695,575.972,93.657,571.007,93.657 M568.878,45.373c-5.527,0-8.813,3.661-9.858,10.979h19.045v-1.457
	c0.074-3.024-0.691-5.367-2.298-7.029C574.162,46.205,571.866,45.373,568.878,45.373"/>
</svg>
